<?xml version="1.0" encoding="utf-8"?>
<!-- Generator: Adobe Illustrator 24.1.2, SVG Export Plug-In . SVG Version: 6.00 Build 0)  -->
<svg version="1.1" id="Слой_1" xmlns="http://www.w3.org/2000/svg" xmlns:xlink="http://www.w3.org/1999/xlink" x="0px" y="0px"
	 viewBox="0 0 595.28 841.89" style="enable-background:new 0 0 595.28 841.89;" xml:space="preserve">
<style type="text/css">
	.st0{fill-rule:evenodd;clip-rule:evenodd;fill:#9D3A8E;}
	.st1{fill-rule:evenodd;clip-rule:evenodd;fill:#691E5C;}
	.st2{fill-rule:evenodd;clip-rule:evenodd;fill:#344E9D;}
	.st3{fill-rule:evenodd;clip-rule:evenodd;fill:#1692D1;}
	.st4{fill-rule:evenodd;clip-rule:evenodd;fill:#93B318;}
	.st5{fill-rule:evenodd;clip-rule:evenodd;fill:#F28A00;}
	.st6{fill-rule:evenodd;clip-rule:evenodd;fill:#FFFFFF;}
</style>
<g>
	<path class="st0" d="M650.44,688.27h57.86c16.8,0,30.42-13.63,30.42-30.42V185.29c0-16.8-13.62-30.4-30.42-30.4h-57.86V688.27
		L650.44,688.27z"/>
	<path class="st1" d="M-55.72,154.89h-57.87c-16.8,0-30.41,13.61-30.41,30.4v472.55c0,16.8,13.62,30.42,30.41,30.42H32.55V154.89
		H-55.72L-55.72,154.89z"/>
	<polygon class="st2" points="120.82,154.89 32.54,154.89 32.54,688.27 209.09,688.27 209.09,154.89 120.82,154.89 	"/>
	<polygon class="st3" points="297.36,154.89 209.08,154.89 209.08,688.27 385.63,688.27 385.63,154.89 297.36,154.89 	"/>
	<polygon class="st4" points="473.9,154.89 385.62,154.89 385.62,688.27 562.17,688.27 562.17,154.89 473.9,154.89 	"/>
	<polygon class="st5" points="562.16,688.27 650.44,688.27 650.44,154.89 562.16,154.89 562.16,688.27 	"/>
	<path class="st6" d="M97.44,390.75c0,20.81-16.88,37.69-37.69,37.69c-20.82,0-37.69-16.87-37.69-37.69
		c0-20.81,16.87-37.7,37.69-37.7C80.56,353.05,97.44,369.93,97.44,390.75L97.44,390.75z"/>
	<path class="st6" d="M59.75,291.03c50.17,0,90.84,40.68,90.84,90.85h34.07c0-69-55.93-124.92-124.92-124.92
		c-68.99,0-124.92,55.92-124.92,124.92h34.08C-31.1,331.71,9.57,291.03,59.75,291.03L59.75,291.03z"/>
	<path class="st6" d="M16.63,501.65l-55.87-40.01c-13.52-9.69-18.01-26.6-10.02-37.73l66.03,47.39L16.63,501.65L16.63,501.65z"/>
	<path class="st6" d="M16.9,525.78l-36.32-26.49c-8.96-6.45-12.16-17.31-7.16-24.24l43.22,31.2L16.9,525.78L16.9,525.78z"/>
	<path class="st6" d="M-30.78,390.75v0.08l52.61,37.44l18.05,13.07c9.42,6.82,15,17.74,15,29.37V586.2H20.49V469.55l-50.78-36.12
		l-20.79-15.07c-8.85-6.4-14.09-16.67-14.09-27.61h0H-30.78L-30.78,390.75z"/>
	<path class="st6" d="M103.09,501.65l55.87-40.01c13.52-9.69,18.01-26.6,10.02-37.73l-66.02,47.39L103.09,501.65L103.09,501.65z"/>
	<path class="st6" d="M102.81,525.78l36.32-26.49c8.95-6.45,12.16-17.31,7.16-24.24l-43.22,31.2L102.81,525.78L102.81,525.78z"/>
	<path class="st6" d="M150.5,390.75v0.08l-52.61,37.44l-18.05,13.07c-9.42,6.82-15,17.74-15,29.37V586.2h34.39V469.55l50.78-36.12
		l20.79-15.07c8.85-6.4,14.09-16.67,14.09-27.61H150.5L150.5,390.75z"/>
	<path class="st6" d="M517.77,389.73h-8.26c-1.04,0-1.91,0.74-2.11,1.73c-0.08,0.1-0.16,0.22-0.22,0.35l-9.49,19.2l1.12-19.87
		c0.07-1.18-0.84-2.19-2.03-2.25l-8.24-0.46c-1.19-0.08-2.2,0.83-2.27,2.01l-2.93,52.13c-0.07,1.18,0.84,2.21,2.03,2.27l7.32,0.42
		c0.42,0.14,0.86,0.14,1.27,0.03c1.03-0.11,1.86-0.94,1.92-2.01l0.02-0.29l11.46-23.19v24.31c0,1.18,0.96,2.14,2.15,2.14h8.26
		c1.19,0,2.15-0.96,2.15-2.14v-52.21C519.92,390.69,518.95,389.73,517.77,389.73L517.77,389.73z"/>
	<path class="st6" d="M370.48,405.49l9.69,23.5l-17.95,0.69L370.48,405.49L370.48,405.49z M396.12,427.08L396.12,427.08h-3.15
		l-16.72-40.54c-0.45-1.09-1.71-1.61-2.81-1.17l-6.95-0.38c-1.12-0.38-2.35,0.22-2.73,1.34l-14.98,43.85l-5.4,0.21
		c-0.42,0.02-0.81,0.14-1.13,0.37c-1,0.19-1.76,1.06-1.76,2.13v21.42c0,1.18,0.96,2.16,2.15,2.16h8.26c1.19,0,2.15-0.98,2.15-2.16
		v-11.72l32.68-1.25v9.32c0,1.18,0.96,2.14,2.15,2.14h8.26c1.19,0,2.15-0.96,2.15-2.14v-21.44
		C398.27,428.04,397.31,427.08,396.12,427.08L396.12,427.08z"/>
	<path class="st6" d="M474.51,389.45c-0.09-1.18-1.12-2.08-2.31-1.98l-30.5,2.29c-1.18,0.1-2.07,1.12-1.98,2.3l0.62,8.25
		c0.09,1.18,1.12,2.06,2.31,1.98l8.5-0.64v42.44c0,1.18,0.96,2.14,2.15,2.14h8.26c1.19,0,2.15-0.96,2.15-2.14v-43.38l9.44-0.72
		c1.18-0.08,2.07-1.12,1.98-2.3L474.51,389.45L474.51,389.45z"/>
	<path class="st6" d="M424.76,388.37l-9.05,0.56c-1.23,0.15-1.44,0.58-1.64,1.93v10.79v6.93v35.51c0,1.18,0.96,2.14,2.15,2.14h8.26
		c1.19,0,2.15-0.96,2.15-2.14v-40.16v-3.22l0.08-10.13C426.98,388.87,425.69,388.44,424.76,388.37L424.76,388.37z"/>
	<path class="st6" d="M264,496.53l5.13,20.01l-11.84,0.52L264,496.53L264,496.53z M269.38,483.54L269.38,483.54
		c-0.37-0.94-1.39-1.37-2.28-0.99l-7.51-0.33c-0.91-0.33-1.91,0.19-2.22,1.14l-12.17,37.25l-6.74,20.49c0,1,0.78,1.83,1.74,1.83
		h7.86c0.96,0,1.75-0.83,1.75-1.83l3.77-13.41l18.95-0.49l3.08,10.8c0,1,0.78,1.82,1.75,1.82h7.45c0.96,0,1.75-0.81,1.75-1.82
		L269.38,483.54L269.38,483.54z"/>
	<path class="st6" d="M424.97,487.93l-7.41-0.18c-3.6-0.34-4.26,0.24-4.79,1.31l-7.91,16.14l-11.48-17.31
		c-1.4-0.4-10.51-0.27-11.5,0.38c-0.99,0.66-1.26,2-0.6,2.99l17.22,26.92l-10.37,21.16c-0.53,1.07-0.09,2.37,0.97,2.89l7.84,0.53
		c1.07,0.51,3.42-0.27,3.94-1.34l25.05-50.62C426.48,489.75,426.04,488.46,424.97,487.93L424.97,487.93z"/>
	<path class="st6" d="M361.21,527.62c0.02,1.36-1.07,2.49-2.44,2.51l-4.61,0.08l-0.15-9.41l4.6-0.08c1.37-0.02,2.5,1.17,2.52,2.54
		L361.21,527.62L361.21,527.62z M358.34,508.17L358.34,508.17l-1.98,0.03l-2.56,0.03l-0.15-9.41l15.01-0.24
		c1.19-0.02,2.14-0.99,2.12-2.17l-0.13-8.26c-0.02-1.18-1-2.13-2.18-2.11l-17.16,0.27l-8.25,0.13c-1.19,0.02-2.14,1.01-2.12,2.19
		l0.13,8.25l0.26,16.21l0.05,3.29l0.3,18.67l0.05,3.29l0.04,2.48c0.02,1.2,1,2.14,2.19,2.13l2.48-0.05l5.78-0.08l1.16-0.03
		l1.98-0.03h0.16c10.21-0.16,18.36-8.57,18.2-18.78l-0.01-0.93C373.56,514.69,366.69,508.04,358.34,508.17L358.34,508.17z"/>
	<path class="st6" d="M466.3,486.16c-0.09-1.18-1.12-2.08-2.3-1.98l-30.5,2.29c-1.18,0.1-2.07,1.12-1.98,2.3l0.62,8.25
		c0.09,1.18,1.12,2.06,2.31,1.98l8.5-0.64v42.44c0,1.18,0.96,2.14,2.15,2.14h8.26c1.19,0,2.15-0.96,2.15-2.14v-43.38l9.44-0.72
		c1.18-0.08,2.07-1.12,1.98-2.3L466.3,486.16L466.3,486.16z"/>
	<path class="st6" d="M647.93,485.41h-24.66c-1.12,0-2.02,0.86-2.13,1.93c-0.28,0.38-0.45,0.86-0.43,1.37l2.15,52.16
		c0.05,1.18,1.05,2.11,2.24,2.06l8.25-0.34c1.19-0.05,2.11-1.06,2.06-2.24l-1.74-42.39h14.27c1.19,0,2.15-0.96,2.15-2.16v-8.25
		C650.08,486.38,649.12,485.41,647.93,485.41L647.93,485.41z"/>
	<path class="st6" d="M671.63,484.57c-12.83,2.22-20.66,15.46-21.4,28.05c-0.81,13.79,7.82,29.83,23.1,30.31
		c15.35,0.46,24.88-14.56,25.69-28.37c0.76-12.87-5.77-24.81-17.39-28.97C677.3,484.03,676.93,483.65,671.63,484.57L671.63,484.57z
		 M686.08,514.71L686.08,514.71c-0.96,9.73-6.87,17.12-13.2,16.5c-6.32-0.62-10.67-9.02-9.71-18.75c0.96-9.73,6.87-17.12,13.2-16.5
		C682.7,496.59,687.04,504.99,686.08,514.71L686.08,514.71z"/>
	<path class="st6" d="M588.15,484.57c-12.83,2.22-20.66,15.46-21.4,28.05c-0.81,13.79,7.82,29.83,23.1,30.31
		c15.35,0.46,24.87-14.56,25.69-28.37c0.76-12.87-5.77-24.81-17.39-28.97C593.82,484.03,593.44,483.65,588.15,484.57L588.15,484.57z
		 M602.6,514.71L602.6,514.71c-0.96,9.73-6.87,17.12-13.2,16.5c-6.33-0.62-10.67-9.02-9.71-18.75c0.96-9.73,6.87-17.12,13.2-16.5
		C599.22,496.59,603.56,504.99,602.6,514.71L602.6,514.71z"/>
	<path class="st6" d="M208.58,487.75l7.72,0.07c2.26-0.34,2.68,0.24,3.01,1.31c6.04,19.64,1.99,3.71,16.29,50.23
		c0.33,1.07,0.06,2.37-0.61,2.89l-7.83,0.53c-0.67,0.51-2.15-0.27-2.47-1.34l-11.47-37.4l-8.36,30.2c-1.39,3.65-4.4,3.72-5.65-0.1
		l-6.99-29.63l-12.21,36.93c-0.33,1.07-1.81,1.85-2.47,1.34l-8.19-2.18c-0.67-0.53-1.74-2.07-1.41-3.14l18.83-48.25
		c0.33-1.07,1.45-1.79,3.71-1.45l7.17,0.05c0.4,0.32,0.66,0.92,0.73,1.57l5.31,19.42l4.19-19.48
		C207.91,488.66,208.17,488.07,208.58,487.75L208.58,487.75z"/>
	<path class="st6" d="M485.59,485.08l-9.05,0.56c-1.23,0.15-1.44,0.58-1.64,1.93v10.79v6.93v35.51c0,1.18,0.96,2.14,2.15,2.14h8.26
		c1.19,0,2.15-0.96,2.15-2.14v-40.16v-3.22l0.08-10.13C487.81,485.57,486.52,485.14,485.59,485.08L485.59,485.08z"/>
	<path class="st6" d="M516.82,481.41l-9.05,0.56c-1.23,0.15-1.44,0.58-1.64,1.93v10.79v6.93v35.51c0,1.18,0.96,2.14,2.15,2.14h8.26
		c1.19,0,2.15-0.96,2.15-2.14v-40.16v-3.22l0.08-10.13C519.04,481.91,517.75,481.48,516.82,481.41L516.82,481.41z"/>
	<path class="st6" d="M512.29,504.47c-0.09-1.18-1.12-2.08-2.31-1.98l-30.5,2.29c-1.18,0.1-2.07,1.12-1.98,2.3l0.62,8.25
		c0.09,1.18,1.12,2.06,2.31,1.98c12.32-0.93,8.61-0.63,30.5-2.3c1.18-0.08,2.07-1.12,1.98-2.3L512.29,504.47L512.29,504.47z"/>
	<path class="st6" d="M548.63,527.62c0.02,1.36-1.07,2.49-2.44,2.51l-4.61,0.08l-0.15-9.41l4.6-0.08c1.37-0.02,2.5,1.17,2.52,2.54
		L548.63,527.62L548.63,527.62z M545.76,508.17L545.76,508.17l-1.98,0.03l-2.56,0.03l-0.1-20.09c-0.02-1.18-1-2.13-2.18-2.11
		l-8.47,0.4c-1.19,0.02-2.14,1.01-2.12,2.19l0.13,8.25l0.26,16.21l0.05,3.29l0.3,18.67l0.05,3.29l0.04,2.48
		c0.02,1.2,1,2.14,2.18,2.13l2.48-0.05l5.78-0.08l1.16-0.03l1.98-0.03h0.16c10.21-0.16,18.36-8.57,18.2-18.78l-0.01-0.93
		C560.98,514.69,554.11,508.04,545.76,508.17L545.76,508.17z"/>
	<path class="st6" d="M325.76,486.43h-8.26c-1.04,0-1.91,0.74-2.11,1.73c-0.08,0.1-0.16,0.22-0.22,0.35l-9.49,19.2l1.12-19.87
		c0.07-1.18-0.84-2.19-2.03-2.25l-8.24-0.46c-1.19-0.08-2.2,0.83-2.27,2.01l-2.93,52.13c-0.07,1.18,0.84,2.21,2.03,2.27l7.32,0.42
		c0.42,0.14,0.86,0.14,1.27,0.03c1.03-0.11,1.86-0.94,1.92-2.01l0.02-0.29l11.46-23.19v24.31c0,1.18,0.96,2.14,2.15,2.14h8.26
		c1.19,0,2.15-0.96,2.15-2.14v-52.21C327.91,487.39,326.95,486.43,325.76,486.43L325.76,486.43z"/>
	<path class="st6" d="M327.46,472.91c-0.06-0.81-0.76-1.42-1.57-1.35l-20.77,1.56c-0.81,0.07-1.41,0.76-1.35,1.57l0.42,5.62
		c0.06,0.81,0.76,1.4,1.57,1.35c8.39-0.63,5.86-0.43,20.77-1.57c0.81-0.05,1.41-0.76,1.35-1.57L327.46,472.91L327.46,472.91z"/>
</g>
</svg>
