<svg xmlns="http://www.w3.org/2000/svg" viewBox="0 0 883.13 533.57"><defs><style>.cls-1{fill:#a04191;}.cls-2{fill:#6c2b5f;}.cls-3{fill:#3955a2;}.cls-4{fill:#0094d8;}.cls-5{fill:#90b224;}.cls-6{fill:#f18908;}.cls-7{fill:#fff;}.cls-8{fill:#f1880c;}</style></defs><g id="Слой_2" data-name="Слой 2"><g id="Слой_1-2" data-name="Слой 1"><path class="cls-1" d="M825.27,0h57.87a0,0,0,0,1,0,0V533.38a0,0,0,0,1,0,0H825.27A30.41,30.41,0,0,1,794.86,503V30.41A30.41,30.41,0,0,1,825.27,0Z" transform="translate(1677.99 533.38) rotate(-180)"/><path class="cls-2" d="M132.43.19h-102A30.42,30.42,0,0,0,0,30.6V503.16a30.42,30.42,0,0,0,30.41,30.41H176.55V.19Z"/><polygon class="cls-3" points="308.95 0.19 264.81 0.19 176.54 0.19 176.54 533.57 264.81 533.57 308.95 533.57 353.09 533.57 353.09 0.19 308.95 0.19"/><polygon class="cls-4" points="441.36 0.19 410.24 0.19 353.08 0.19 353.08 533.57 410.24 533.57 441.36 533.57 529.63 533.57 529.63 0.19 441.36 0.19"/><polygon class="cls-5" points="617.9 0.19 573.35 0.19 529.62 0.19 529.62 533.57 573.35 533.57 617.9 533.57 706.17 533.57 706.17 0.19 617.9 0.19"/><rect class="cls-6" x="706.16" y="0.19" width="180" height="60"/><circle class="cls-7" cx="235.84" cy="223.59" r="43.29"/><path class="cls-7" d="M235.84,109.06A104.34,104.34,0,0,1,340.18,213.4h39.13a143.47,143.47,0,0,0-286.94,0h39.14A104.34,104.34,0,0,1,235.84,109.06Z"/><path class="cls-7" d="M186.32,351l-64.16-46c-15.54-11.15-20.69-30.55-11.51-43.34h0l75.83,54.43Z"/><path class="cls-7" d="M186.63,378.68l-41.71-30.41c-10.28-7.43-14-19.89-8.22-27.85h0l49.63,35.83Z"/><path class="cls-7" d="M131.87,223.59v.09l60.42,43,20.73,15a41.68,41.68,0,0,1,17.23,33.75h0V448.08h-39.5v-134l-58.32-41.49L108.55,255.3a39.15,39.15,0,0,1-16.18-31.71h39.5Z"/><path class="cls-7" d="M285.62,351l64.16-46c15.53-11.15,20.68-30.55,11.5-43.34h0l-75.83,54.43Z"/><path class="cls-7" d="M285.3,378.68,327,348.27c10.28-7.43,14-19.89,8.22-27.85h0L285.6,356.25Z"/><path class="cls-7" d="M340.07,223.59v.09l-60.42,43-20.73,15a41.66,41.66,0,0,0-17.23,33.75h0V448.08h39.5v-134l58.32-41.49,23.87-17.31a39.13,39.13,0,0,0,16.19-31.71h-39.5Z"/><path class="cls-7" d="M647.6,255.94h-9.2a2.4,2.4,0,0,0-2.35,1.92,2.59,2.59,0,0,0-.25.39l-10.57,21.4,1.24-22.13a2.4,2.4,0,0,0-2.26-2.53l-9.18-.52a2.4,2.4,0,0,0-2.53,2.26l-3.26,58.09a2.38,2.38,0,0,0,2.26,2.52l8.15.46a2.82,2.82,0,0,0,3.56-2.2l0-.33L636,289.43v27.09a2.39,2.39,0,0,0,2.4,2.39h9.2a2.39,2.39,0,0,0,2.39-2.39V258.34A2.4,2.4,0,0,0,647.6,255.94Z"/><path class="cls-7" d="M503.36,297.56h-3.51L481.21,252.4a2.39,2.39,0,0,0-3.13-1.3l-7.75-.42a2.39,2.39,0,0,0-3,1.49L450.6,301l-6,.23a2.35,2.35,0,0,0-1.27.42,2.4,2.4,0,0,0-2,2.36V327.9a2.39,2.39,0,0,0,2.39,2.4H453a2.39,2.39,0,0,0,2.4-2.4V314.84l36.41-1.39v10.38a2.39,2.39,0,0,0,2.4,2.4h9.2a2.39,2.39,0,0,0,2.39-2.4V300A2.39,2.39,0,0,0,503.36,297.56Zm-28.57-24.05,10.8,26.17-20,.77Z"/><path class="cls-7" d="M599.39,255.64a2.4,2.4,0,0,0-2.57-2.21l-34,2.55a2.4,2.4,0,0,0-2.21,2.57l.69,9.17a2.4,2.4,0,0,0,2.57,2.21l9.47-.71v47.3a2.4,2.4,0,0,0,2.4,2.39H585a2.4,2.4,0,0,0,2.4-2.39V268.17l10.52-.79a2.4,2.4,0,0,0,2.21-2.57Z"/><path class="cls-7" d="M543.82,302.39H529.64V292.08l14.67-1.1a2.4,2.4,0,0,0,2.21-2.57l-.69-9.18a2.4,2.4,0,0,0-2.57-2.21l-13.62,1V267.34l13.75.79a2.39,2.39,0,0,0,2.53-2.25l.53-9.19a2.39,2.39,0,0,0-2.25-2.53l-25.34-1.46a3.94,3.94,0,0,0-3.21,3.12V314a2.4,2.4,0,0,0,2.4,2.4h25.77a2.4,2.4,0,0,0,2.39-2.4v-9.2A2.4,2.4,0,0,0,543.82,302.39Z"/><path class="cls-7" d="M463.75,362.24l-8.25-.19c-4-.38-4.76.27-5.34,1.46l-8.82,18-12.78-19.29c-1.57-.45-11.71-.3-12.81.43a2.39,2.39,0,0,0-.68,3.32l19.19,30-11.55,23.58a2.4,2.4,0,0,0,1.08,3.21l8.74.59a4.2,4.2,0,0,0,4.4-1.49l27.91-56.41A2.4,2.4,0,0,0,463.75,362.24Z"/><path class="cls-7" d="M570.45,360.45l-8.24.46c-4-.06-4.72.65-5.21,1.88l-7.36,18.63L535.37,363.2c-1.6-.32-11.7.63-12.74,1.45a2.4,2.4,0,0,0-.41,3.36l21.5,28.39-9.65,24.43a2.4,2.4,0,0,0,1.34,3.11l8.76-.11a4.18,4.18,0,0,0,4.26-1.83l23.36-58.44A2.39,2.39,0,0,0,570.45,360.45Z"/><path class="cls-7" d="M652.11,410.1l-6.71-.63,2.09-47a2.39,2.39,0,0,0-2.29-2.5l-9.19-.41a2.39,2.39,0,0,0-2.5,2.29l-2.21,49.8-11.18-.5,2.17-48.68A2.39,2.39,0,0,0,620,360l-9.19-.41a2.39,2.39,0,0,0-2.5,2.29l-2.17,48.68-10.34-.46V362.14a2.4,2.4,0,0,0-2.4-2.4h-9.2a2.4,2.4,0,0,0-2.4,2.4v58.17a4.19,4.19,0,0,0,2.84,3.28L639,426l-.85,9.18a2.38,2.38,0,0,0,2.16,2.6l9.16.86a2.4,2.4,0,0,0,2.61-2.17l2.21-23.78A2.4,2.4,0,0,0,652.11,410.1Z"/><path class="cls-7" d="M521.3,406.25h-3.51l-18.63-45.16a2.39,2.39,0,0,0-3.13-1.3l-7.75-.43a2.4,2.4,0,0,0-3,1.5l-16.7,48.84-6,.23a4.12,4.12,0,0,0-3.23,2.78v23.88a2.4,2.4,0,0,0,2.4,2.4h9.2a2.4,2.4,0,0,0,2.39-2.4V423.52l36.41-1.39v10.39a2.41,2.41,0,0,0,2.4,2.4h9.2a2.41,2.41,0,0,0,2.4-2.4V408.64A2.4,2.4,0,0,0,521.3,406.25Zm-28.57-28.12,10.8,26.17-20,.77Z"/><path class="cls-7" d="M743.59,360.45H716.11a2.39,2.39,0,0,0-2.37,2.16,2.31,2.31,0,0,0-.48,1.52l2.39,58.12a2.39,2.39,0,0,0,2.49,2.3l9.19-.38a2.4,2.4,0,0,0,2.3-2.49l-2-47.24h15.91a2.4,2.4,0,0,0,2.4-2.39v-9.2A2.4,2.4,0,0,0,743.59,360.45Z"/><path class="cls-7" d="M694.93,410.17H680.76V399.85l14.66-1.1a2.4,2.4,0,0,0,2.21-2.57l-.69-9.17a2.4,2.4,0,0,0-2.57-2.21l-13.61,1V375.11l13.74.79a2.39,2.39,0,0,0,2.53-2.25l.53-9.18a2.38,2.38,0,0,0-2.25-2.53L670,360.47a3.94,3.94,0,0,0-3.21,3.12v58.17a2.4,2.4,0,0,0,2.4,2.4h25.77a2.39,2.39,0,0,0,2.39-2.4v-9.2A2.39,2.39,0,0,0,694.93,410.17Z"/><path class="cls-7" d="M389.5,385.56l-2.2,0-2.85.05-.17-10.5,16.73-.26a2.39,2.39,0,0,0,2.36-2.44l-.15-9.2a2.38,2.38,0,0,0-2.43-2.35l-19.13.3-9.2.15a2.38,2.38,0,0,0-2.35,2.43l.14,9.2.29,18,.06,3.67.33,20.81.06,3.67,0,2.77a2.41,2.41,0,0,0,2.44,2.36l2.76-.05,6.44-.1,1.29,0,2.21,0h.17a20.61,20.61,0,0,0,20.28-20.94l0-1A16.83,16.83,0,0,0,389.5,385.56Zm3.19,21.67A2.76,2.76,0,0,1,390,410l-5.13.08-.17-10.49,5.13-.08a2.84,2.84,0,0,1,2.81,2.82Z"/><path class="cls-7" d="M782.41,361.09c-17.11-.35-27.72,16.08-28.63,31.62-.89,15.37,8.71,33.23,25.74,33.76s27.72-16.22,28.63-31.62c1-16.54-8.84-31.71-25.74-33.76-6.44-.78-12,6.08-12,12,0,7.14,5.54,11.22,12,12a2.09,2.09,0,0,1-1.73-.45c1.17.74,1.31.75.42,0a17,17,0,0,1,1.68,1.71c-.68-.76-.6-.53.23.68a13.44,13.44,0,0,1,1.14,7.78,21.37,21.37,0,0,1-1.08,4.11c.59-1.4-2.14,3.36-.87,1.72a19.4,19.4,0,0,1-1.73,1.78c.85-.64.7-.58-.47.17q1.71-.61-.3,0c1.34-.14,1.28-.2-.18-.16a2.1,2.1,0,0,1,1.74.45c-1.17-.74-1.31-.75-.43,0a16.85,16.85,0,0,1-1.67-1.71c.67.76.59.53-.24-.68a13.44,13.44,0,0,1-1.14-7.78,23,23,0,0,1,1.08-4.11c-.58,1.4,2.15-3.36.88-1.72a18.18,18.18,0,0,1,1.73-1.78c-.86.64-.7.58.47-.17q-1.71.61.3,0c-1.34.14-1.28.2.17.16C797.86,385.41,797.86,361.41,782.41,361.09Z"/><ellipse class="cls-8" cx="780.97" cy="393.78" rx="19.74" ry="12.82" transform="translate(312.15 1132.14) rotate(-84.34)"/></g></g></svg>