<svg xmlns="http://www.w3.org/2000/svg" viewBox="0 0 882.72 533.38"><defs><style>.cls-1{fill:#9d3a8e;}.cls-1,.cls-2,.cls-3,.cls-4,.cls-5,.cls-6,.cls-7{fill-rule:evenodd;}.cls-2{fill:#691e5c;}.cls-3{fill:#344e9d;}.cls-4{fill:#1692d1;}.cls-5{fill:#93b318;}.cls-6{fill:#f28a00;}.cls-7{fill:#fff;}</style></defs><g id="Слой_2" data-name="Слой 2"><g id="Слой_1-2" data-name="Слой 1"><path class="cls-1" d="M794.44,533.38H852.3A30.43,30.43,0,0,0,882.72,503V30.4A30.4,30.4,0,0,0,852.3,0H794.44V533.38Z"/><path class="cls-2" d="M88.28,0H30.41A30.4,30.4,0,0,0,0,30.4V503a30.42,30.42,0,0,0,30.41,30.42H176.55V0Z"/><polygon class="cls-3" points="264.82 0 176.54 0 176.54 533.38 353.09 533.38 353.09 0 264.82 0"/><polygon class="cls-4" points="441.36 0 353.08 0 353.08 533.38 529.63 533.38 529.63 0 441.36 0"/><polygon class="cls-5" points="617.9 0 529.62 0 529.62 533.38 706.17 533.38 706.17 0 617.9 0"/><polygon class="cls-6" points="706.16 533.38 794.44 533.38 794.44 0 706.16 0 706.16 533.38"/><path class="cls-7" d="M241.44,235.86a37.69,37.69,0,1,1-37.69-37.7,37.7,37.7,0,0,1,37.69,37.7Z"/><path class="cls-7" d="M203.75,136.14A90.85,90.85,0,0,1,294.59,227h34.07a124.92,124.92,0,0,0-249.84,0H112.9a90.85,90.85,0,0,1,90.85-90.85Z"/><path class="cls-7" d="M160.63,346.76l-55.87-40c-13.52-9.69-18-26.6-10-37.73l66,47.39-.14,30.35Z"/><path class="cls-7" d="M160.9,370.89,124.58,344.4c-9-6.45-12.16-17.31-7.16-24.24l43.22,31.2.26,19.53Z"/><path class="cls-7" d="M113.22,235.86v.08l52.61,37.44,18,13.07a36.26,36.26,0,0,1,15,29.37V431.31H164.49V314.66l-50.78-36.12L92.92,263.47a34.07,34.07,0,0,1-14.09-27.61h34.39Z"/><path class="cls-7" d="M247.09,346.76l55.87-40c13.52-9.69,18-26.6,10-37.73l-66,47.39.13,30.35Z"/><path class="cls-7" d="M246.81,370.89l36.32-26.49c8.95-6.45,12.16-17.31,7.16-24.24l-43.22,31.2-.26,19.53Z"/><path class="cls-7" d="M294.5,235.86v.08l-52.61,37.44-18,13.07a36.26,36.26,0,0,0-15,29.37V431.31h34.39V314.66L294,278.54l20.79-15.07a34.07,34.07,0,0,0,14.09-27.61Z"/><path class="cls-7" d="M661.77,234.84h-8.26a2.16,2.16,0,0,0-2.11,1.73,1.74,1.74,0,0,0-.22.35l-9.49,19.2,1.12-19.87a2.13,2.13,0,0,0-2-2.25l-8.24-.46a2.13,2.13,0,0,0-2.27,2l-2.93,52.13a2.15,2.15,0,0,0,2,2.27l7.32.42a2.2,2.2,0,0,0,1.27,0,2.14,2.14,0,0,0,1.92-2l0-.29,11.46-23.19v24.31a2.14,2.14,0,0,0,2.15,2.14h8.26a2.14,2.14,0,0,0,2.15-2.14V237a2.16,2.16,0,0,0-2.15-2.17Z"/><path class="cls-7" d="M514.48,250.6l9.69,23.5-17.95.69,8.26-24.19Zm25.64,21.59H537l-16.72-40.54a2.17,2.17,0,0,0-2.81-1.17l-7-.38a2.16,2.16,0,0,0-2.73,1.34l-15,43.85-5.4.21a2.09,2.09,0,0,0-1.13.37,2.16,2.16,0,0,0-1.76,2.13v21.42a2.16,2.16,0,0,0,2.15,2.16h8.26a2.16,2.16,0,0,0,2.15-2.16V287.7l32.68-1.25v9.32a2.14,2.14,0,0,0,2.15,2.14h8.26a2.14,2.14,0,0,0,2.15-2.14V274.33a2.17,2.17,0,0,0-2.17-2.14Z"/><path class="cls-7" d="M618.51,234.56a2.14,2.14,0,0,0-2.31-2l-30.5,2.29a2.15,2.15,0,0,0-2,2.3l.62,8.25a2.16,2.16,0,0,0,2.31,2l8.5-.64V289.2a2.14,2.14,0,0,0,2.15,2.14h8.26a2.14,2.14,0,0,0,2.15-2.14V245.82l9.44-.72a2.14,2.14,0,0,0,2-2.3l-.62-8.24Z"/><path class="cls-7" d="M568.76,233.48l-9,.56c-1.23.15-1.44.58-1.64,1.93V289.2a2.14,2.14,0,0,0,2.15,2.14h8.26a2.14,2.14,0,0,0,2.15-2.14V245.82l.08-10.13c.27-1.71-1-2.14-2-2.21Z"/><path class="cls-7" d="M408,341.64l5.13,20-11.84.52L408,341.64Zm5.38-13h0a1.72,1.72,0,0,0-2.28-1l-7.51-.33a1.73,1.73,0,0,0-2.22,1.14L389.2,365.72l-6.74,20.49A1.79,1.79,0,0,0,384.2,388h7.86a1.8,1.8,0,0,0,1.75-1.83l3.77-13.41,18.95-.49,3.08,10.8a1.79,1.79,0,0,0,1.75,1.82h7.45a1.79,1.79,0,0,0,1.75-1.82l-17.18-54.46Z"/><path class="cls-7" d="M569,333l-7.41-.18c-3.6-.34-4.26.24-4.79,1.31l-7.91,16.14L537.38,333c-1.4-.4-10.51-.27-11.5.38a2.16,2.16,0,0,0-.6,3l17.22,26.92-10.37,21.16a2.16,2.16,0,0,0,1,2.89l7.84.53a3.76,3.76,0,0,0,3.94-1.34l25-50.62a2.11,2.11,0,0,0-1-2.87Z"/><path class="cls-7" d="M505.21,372.73a2.48,2.48,0,0,1-2.44,2.51l-4.61.08-.15-9.41,4.6-.08a2.57,2.57,0,0,1,2.52,2.54l.08,4.36Zm-2.87-19.45h0l-2,0-2.56,0-.15-9.41,15-.24a2.14,2.14,0,0,0,2.12-2.17l-.13-8.26a2.15,2.15,0,0,0-2.18-2.11l-17.16.27-8.25.13a2.16,2.16,0,0,0-2.12,2.19l.13,8.25.26,16.21.05,3.29.3,18.67.05,3.29,0,2.48a2.16,2.16,0,0,0,2.19,2.13l2.48-.05,5.78-.08,1.16,0,2,0h.16a18.49,18.49,0,0,0,18.2-18.78v-.93a15.14,15.14,0,0,0-15.37-14.88Z"/><path class="cls-7" d="M610.3,331.27a2.14,2.14,0,0,0-2.3-2l-30.5,2.29a2.15,2.15,0,0,0-2,2.3l.62,8.25a2.16,2.16,0,0,0,2.31,2l8.5-.64v42.44a2.14,2.14,0,0,0,2.15,2.14h8.26a2.14,2.14,0,0,0,2.15-2.14V342.53l9.44-.72a2.14,2.14,0,0,0,2-2.3l-.63-8.24Z"/><path class="cls-7" d="M791.93,330.52H767.27a2.15,2.15,0,0,0-2.13,1.93,2.17,2.17,0,0,0-.43,1.37L766.86,386A2.16,2.16,0,0,0,769.1,388l8.25-.34a2.15,2.15,0,0,0,2.06-2.24l-1.74-42.39h14.27a2.15,2.15,0,0,0,2.15-2.16v-8.25a2.17,2.17,0,0,0-2.16-2.14Z"/><path class="cls-7" d="M815.63,329.68c-12.83,2.22-20.66,15.46-21.4,28.05-.81,13.79,7.82,29.83,23.1,30.31s24.88-14.56,25.69-28.37c.76-12.87-5.77-24.81-17.39-29-4.33-1.56-4.7-1.94-10-1Zm14.45,30.14h0c-1,9.73-6.87,17.12-13.2,16.5s-10.67-9-9.71-18.75,6.87-17.12,13.2-16.5,10.67,9,9.71,18.75Z"/><path class="cls-7" d="M732.15,329.68c-12.83,2.22-20.66,15.46-21.4,28.05-.81,13.79,7.82,29.83,23.1,30.31s24.87-14.56,25.69-28.37c.76-12.87-5.77-24.81-17.39-29-4.33-1.56-4.71-1.94-10-1Zm14.45,30.14h0c-1,9.73-6.87,17.12-13.2,16.5s-10.67-9-9.71-18.75,6.87-17.12,13.2-16.5,10.67,9,9.71,18.75Z"/><path class="cls-7" d="M352.58,332.86l7.72.07c2.26-.34,2.68.24,3,1.31,6,19.64,2,3.71,16.29,50.23a2.85,2.85,0,0,1-.61,2.89l-7.83.53c-.67.51-2.15-.27-2.47-1.34l-11.47-37.4-8.36,30.2c-1.39,3.65-4.4,3.72-5.65-.1l-7-29.63L324,386.55c-.33,1.07-1.81,1.85-2.47,1.34l-8.19-2.18c-.67-.53-1.74-2.07-1.41-3.14l18.83-48.25c.33-1.07,1.45-1.79,3.71-1.45l7.17.05a2.35,2.35,0,0,1,.73,1.57l5.31,19.42,4.19-19.48a2.11,2.11,0,0,1,.7-1.57Z"/><path class="cls-7" d="M629.59,330.19l-9.05.56c-1.23.15-1.44.58-1.64,1.93v53.23a2.14,2.14,0,0,0,2.15,2.14h8.26a2.14,2.14,0,0,0,2.15-2.14V342.53l.08-10.13c.27-1.72-1-2.15-1.95-2.21Z"/><path class="cls-7" d="M660.82,326.52l-9.05.56c-1.23.15-1.44.58-1.64,1.93v53.23a2.14,2.14,0,0,0,2.15,2.14h8.26a2.14,2.14,0,0,0,2.15-2.14V338.86l.08-10.13c.27-1.71-1-2.14-1.95-2.21Z"/><path class="cls-7" d="M656.29,349.58a2.14,2.14,0,0,0-2.31-2l-30.5,2.29a2.15,2.15,0,0,0-2,2.3l.62,8.25a2.16,2.16,0,0,0,2.31,2c12.32-.93,8.61-.63,30.5-2.3a2.14,2.14,0,0,0,2-2.3l-.62-8.24Z"/><path class="cls-7" d="M692.63,372.73a2.48,2.48,0,0,1-2.44,2.51l-4.61.08-.15-9.41,4.6-.08a2.57,2.57,0,0,1,2.52,2.54l.08,4.36Zm-2.87-19.45h0l-2,0-2.56,0-.1-20.09a2.15,2.15,0,0,0-2.18-2.11l-8.47.4a2.16,2.16,0,0,0-2.12,2.19l.13,8.25.26,16.21,0,3.29.3,18.67,0,3.29,0,2.48a2.16,2.16,0,0,0,2.18,2.13l2.48-.05,5.78-.08,1.16,0,2,0h.16a18.49,18.49,0,0,0,18.2-18.78v-.93a15.11,15.11,0,0,0-15.35-14.87Z"/><path class="cls-7" d="M469.76,331.54H461.5a2.16,2.16,0,0,0-2.11,1.73,1.74,1.74,0,0,0-.22.35l-9.49,19.2L450.8,333a2.13,2.13,0,0,0-2-2.25l-8.24-.46a2.13,2.13,0,0,0-2.27,2l-2.93,52.13a2.15,2.15,0,0,0,2,2.27l7.32.42a2.2,2.2,0,0,0,1.27,0,2.14,2.14,0,0,0,1.92-2l0-.29,11.46-23.19v24.31a2.14,2.14,0,0,0,2.15,2.14h8.26a2.14,2.14,0,0,0,2.15-2.14V333.71a2.15,2.15,0,0,0-2.15-2.17Z"/><path class="cls-7" d="M471.46,318a1.45,1.45,0,0,0-1.57-1.35l-20.77,1.56a1.47,1.47,0,0,0-1.35,1.57l.42,5.62a1.47,1.47,0,0,0,1.57,1.35c8.39-.63,5.86-.43,20.77-1.57a1.45,1.45,0,0,0,1.35-1.57l-.42-5.61Z"/></g></g></svg>